{"glyphs":{":":{"x_min":0,"x_max":294,"ha":294,"o":"m 147 399 q 113 399 89 422 q 66 446 66 480 q 66 514 90 538 q 113 562 147 562 q 181 562 204 538 q 228 514 228 480 q 228 446 205 422 q 181 399 147 399 z m 147 -8 q 113 -8 89 16 q 66 39 66 73 q 66 107 90 130 q 113 154 147 154 q 181 154 204 130 q 228 107 228 73 q 228 39 205 16 q 181 -8 147 -8 z"},"$":{"x_min":0,"x_max":542,"ha":542,"o":"m 296 312 l 296 94 q 350 101 379 128 q 408 155 408 199 q 408 237 382 263 q 355 290 296 312 z m 240 641 q 188 631 161 607 q 134 583 134 547 q 134 513 160 486 q 186 459 240 438 z m 296 419 q 405 383 454 332 q 504 281 504 206 q 504 119 448 64 q 393 10 296 3 l 296 -84 l 240 -84 l 240 4 q 166 16 113 52 q 59 89 22 152 l 106 203 q 127 158 161 131 q 195 103 240 94 l 240 331 q 138 367 89 417 q 41 467 41 536 q 41 614 95 666 q 149 717 240 724 l 240 796 l 296 796 l 296 725 q 362 717 412 687 q 462 657 498 604 l 420 543 q 396 586 365 610 q 335 633 296 639 z"},"?":{"x_min":0,"x_max":602,"ha":602,"o":"m 211 257 l 211 433 q 222 431 234 430 q 246 429 258 429 q 329 429 370 466 q 411 503 411 567 q 411 628 376 665 q 342 702 284 702 q 229 702 196 672 q 163 643 158 590 l 45 590 q 54 684 118 738 q 182 792 284 792 q 392 792 457 730 q 521 669 521 566 q 521 471 469 414 q 417 357 324 352 l 324 257 z m 267 -8 q 233 -8 209 16 q 186 39 186 73 q 186 107 210 130 q 233 154 267 154 q 301 154 324 130 q 348 107 348 73 q 348 39 325 16 q 301 -8 267 -8 z"},"<":{"x_min":0,"x_max":833,"ha":833,"o":"m 704 491 l 231 298 l 704 106 l 704 31 l 129 267 l 129 330 l 704 566 z"},"'":{"x_min":0,"x_max":155,"ha":155,"o":"m 112 701 l 112 430 l 44 430 l 44 701 z"},"=":{"x_min":0,"x_max":833,"ha":833,"o":"m 709 235 l 709 167 l 124 167 l 124 235 z m 709 429 l 709 361 l 124 361 l 124 429 z"},"a":{"x_min":0,"x_max":589,"ha":589,"o":"m 272 79 q 330 79 365 134 q 400 189 400 283 q 400 376 365 431 q 331 486 274 486 q 216 486 181 431 q 146 376 146 283 q 146 189 181 134 q 215 79 272 79 z m 406 0 q 408 34 411 66 q 414 98 419 130 q 393 59 349 21 q 305 -16 248 -16 q 152 -16 94 67 q 35 150 35 288 q 35 426 94 509 q 153 593 248 593 q 302 593 344 563 q 386 533 411 476 q 405 503 401 531 q 398 559 397 588 l 506 588 l 506 0 z"},"L":{"x_min":0,"x_max":681,"ha":681,"o":"m 120 0 l 120 775 l 231 775 l 231 102 l 674 102 l 674 0 z"},"3":{"x_min":0,"x_max":542,"ha":542,"o":"m 29 190 l 143 190 q 150 138 182 110 q 214 82 267 82 q 322 82 353 116 q 384 150 384 211 q 384 274 345 311 q 307 347 239 347 l 239 437 l 245 437 q 310 437 344 469 q 379 502 379 562 q 379 619 348 651 q 318 684 265 684 q 217 684 188 655 q 159 626 155 574 l 44 574 q 50 668 110 723 q 169 778 266 778 q 370 778 430 721 q 490 665 490 567 q 490 504 463 462 q 436 419 381 396 q 441 371 471 326 q 501 280 501 214 q 501 111 436 48 q 371 -16 266 -16 q 165 -16 101 40 q 37 96 29 190 z"},";":{"x_min":0,"x_max":294,"ha":294,"o":"m 157 399 q 123 399 100 422 q 76 446 76 480 q 76 514 100 538 q 124 562 157 562 q 191 562 215 538 q 239 514 239 480 q 239 446 215 423 q 191 399 157 399 z m -16 -74 l 94 241 l 221 241 l 77 -74 z"},"J":{"x_min":0,"x_max":562,"ha":562,"o":"m 14 122 l 96 180 q 111 133 144 110 q 176 86 225 86 q 283 86 307 124 q 331 162 331 256 l 331 775 l 442 775 l 442 232 q 442 107 388 46 q 334 -16 226 -16 q 152 -16 98 20 q 43 55 14 122 z"},"V":{"x_min":0,"x_max":736,"ha":736,"o":"m 420 0 l 315 0 l 25 775 l 140 775 l 369 138 l 600 775 l 711 775 z"},"\"":{"x_min":0,"x_max":300,"ha":300,"o":"m 256 701 l 256 430 l 188 430 l 188 701 z m 112 701 l 112 430 l 44 430 l 44 701 z"},"7":{"x_min":0,"x_max":542,"ha":542,"o":"m 87 0 l 377 669 l 55 669 l 55 762 l 532 762 l 202 0 z"},"S":{"x_min":0,"x_max":611,"ha":611,"o":"m 51 182 l 146 215 q 164 151 205 118 q 245 85 304 85 q 362 85 396 119 q 430 154 430 212 q 430 259 402 289 q 375 318 279 358 q 168 403 123 455 q 77 507 77 584 q 77 675 137 733 q 198 792 293 792 q 357 792 410 763 q 463 733 507 674 l 433 601 q 399 647 365 670 q 330 693 293 693 q 246 693 216 666 q 187 639 187 595 q 187 561 206 535 q 225 510 267 489 q 305 470 356 449 q 407 428 418 421 q 487 376 514 330 q 540 285 540 214 q 540 112 475 48 q 410 -16 307 -16 q 208 -16 139 37 q 71 89 51 182 z"},"}":{"x_min":0,"x_max":500,"ha":500,"o":"m 281 546 l 281 426 q 281 354 307 324 q 333 295 397 295 q 400 295 408 295 q 415 296 419 296 l 419 223 q 416 223 408 224 q 401 224 398 224 q 333 224 307 195 q 281 165 281 92 l 281 -28 q 281 -100 270 -131 q 259 -162 232 -178 q 211 -191 182 -197 q 152 -202 99 -202 l 78 -202 l 78 -130 l 97 -130 q 156 -130 176 -108 q 197 -86 197 -17 l 197 100 q 197 178 219 211 q 240 245 295 259 q 240 273 219 307 q 197 340 197 418 l 197 536 q 197 604 176 626 q 156 648 97 648 l 78 648 l 78 721 l 96 721 q 148 721 180 715 q 211 709 232 696 q 259 679 270 649 q 281 618 281 546 z"},"Z":{"x_min":0,"x_max":634,"ha":634,"o":"m 30 0 l 405 674 l 63 674 l 63 775 l 584 775 l 209 102 l 593 102 l 593 0 z"},"x":{"x_min":0,"x_max":495,"ha":495,"o":"m -3 0 l 177 300 l 5 588 l 132 588 l 247 384 l 364 588 l 480 588 l 312 309 l 498 0 l 370 0 l 244 223 l 115 0 z"},")":{"x_min":0,"x_max":424,"ha":424,"o":"m 16 -81 q 106 19 152 128 q 198 238 198 355 q 198 472 152 582 q 106 691 16 791 l 134 791 q 216 696 257 587 q 298 478 298 355 q 298 232 257 123 q 216 14 134 -81 z"},"&":{"x_min":0,"x_max":731,"ha":731,"o":"m 293 494 q 340 528 361 560 q 383 591 383 625 q 383 660 361 682 q 339 704 304 704 q 268 704 245 682 q 223 659 223 623 q 223 591 241 558 q 258 526 293 494 z m 274 359 q 210 316 181 277 q 152 237 152 193 q 152 142 187 109 q 221 77 277 77 q 326 77 373 98 q 419 119 453 156 z m 598 0 l 521 87 q 463 34 402 9 q 340 -17 270 -17 q 167 -17 105 42 q 43 102 43 199 q 43 270 81 327 q 120 384 200 435 q 160 479 141 523 q 122 566 122 612 q 122 692 173 742 q 224 792 306 792 q 384 792 432 743 q 481 694 481 617 q 481 562 452 516 q 424 469 361 422 l 529 237 q 559 267 585 302 q 611 336 634 374 l 705 310 q 691 278 665 242 q 639 206 599 164 l 745 0 z"},"_":{"x_min":0,"x_max":500,"ha":500,"o":"m 500 -166 l 500 -236 l 0 -236 l 0 -166 z"},"v":{"x_min":0,"x_max":523,"ha":523,"o":"m 203 0 l 15 588 l 132 588 l 218 287 q 229 250 240 206 q 250 162 262 113 l 272 155 q 298 261 306 287 l 394 588 l 507 588 l 319 0 z"},"O":{"x_min":0,"x_max":759,"ha":759,"o":"m 166 388 q 166 249 224 167 q 281 86 379 86 q 476 86 534 167 q 592 249 592 387 q 592 526 534 608 q 476 690 379 690 q 282 690 224 608 q 166 527 166 388 z m 379 792 q 453 792 512 764 q 572 737 615 683 q 662 625 685 551 q 708 477 708 387 q 708 297 685 224 q 662 151 615 92 q 573 39 513 11 q 453 -16 380 -16 q 307 -16 247 11 q 188 39 145 92 q 98 151 74 225 q 51 299 51 388 q 51 477 74 552 q 98 626 144 684 q 187 737 246 765 q 306 792 379 792 z"},"(":{"x_min":0,"x_max":424,"ha":424,"o":"m 406 791 q 315 691 270 582 q 224 472 224 355 q 224 238 270 128 q 315 19 406 -81 l 288 -81 q 206 14 165 123 q 124 232 124 355 q 124 478 165 587 q 206 696 288 791 z"},"C":{"x_min":0,"x_max":667,"ha":667,"o":"m 624 54 q 580 19 525 1 q 471 -16 404 -16 q 327 -16 263 11 q 199 38 153 89 q 102 146 76 221 q 51 295 51 388 q 51 479 76 556 q 102 632 152 689 q 196 740 258 766 q 321 792 398 792 q 459 792 511 775 q 562 758 607 723 l 607 590 q 564 642 515 666 q 466 690 404 690 q 297 690 232 608 q 167 525 167 388 q 167 248 233 167 q 299 86 413 86 q 476 86 529 110 q 582 135 624 184 z"},"W":{"x_min":0,"x_max":1000,"ha":1000,"o":"m 561 775 l 710 158 l 855 775 l 956 775 l 765 0 l 660 0 l 500 654 l 339 0 l 234 0 l 43 775 l 144 775 l 289 158 l 438 775 z"},"A":{"x_min":0,"x_max":741,"ha":741,"o":"m 235 286 l 500 286 l 367 669 z m 598 0 l 529 200 l 206 200 l 140 0 l 26 0 l 310 775 l 429 775 l 714 0 z"},"f":{"x_min":0,"x_max":343,"ha":343,"o":"m 357 773 l 357 679 q 342 688 326 693 q 311 698 295 698 q 261 698 242 679 q 223 661 223 626 l 223 532 l 345 532 l 345 449 l 223 449 l 223 0 l 112 0 l 112 449 l 12 449 l 12 532 l 112 532 l 112 615 q 112 703 150 745 q 189 787 270 787 q 292 787 313 784 q 335 780 357 773 z"},"Q":{"x_min":0,"x_max":759,"ha":759,"o":"m 463 106 l 324 304 l 434 304 l 533 164 q 561 202 576 261 q 592 319 592 387 q 592 526 534 608 q 476 690 379 690 q 282 690 224 608 q 166 527 166 388 q 166 245 225 165 q 285 85 390 85 q 411 85 428 90 q 446 95 463 106 z m 524 19 q 494 1 459 -8 q 424 -16 380 -16 q 307 -16 247 11 q 187 39 145 91 q 98 150 74 224 q 51 298 51 388 q 51 477 74 551 q 98 625 145 684 q 187 737 246 764 q 306 792 379 792 q 453 792 513 764 q 573 737 615 684 q 662 625 685 551 q 708 477 708 387 q 708 290 681 212 q 653 133 598 71 l 704 -81 l 594 -81 z"},"w":{"x_min":0,"x_max":801,"ha":801,"o":"m 455 588 l 563 90 q 569 130 576 164 q 583 198 590 227 l 678 588 l 778 588 l 620 0 l 509 0 l 433 314 l 433 314 q 407 420 400 488 q 396 450 388 407 q 380 364 368 316 l 292 0 l 180 0 l 22 588 l 122 588 l 237 90 q 241 116 247 148 q 254 181 265 231 l 345 588 z"},"-":{"x_min":0,"x_max":366,"ha":366,"o":"m 46 251 l 46 348 l 319 348 l 319 251 z"},"E":{"x_min":0,"x_max":795,"ha":795,"o":"m 120 0 l 120 775 l 694 775 l 694 674 l 231 674 l 231 454 l 667 454 l 667 356 l 231 356 l 231 102 l 694 102 l 694 0 z"},"s":{"x_min":0,"x_max":507,"ha":507,"o":"m 368 438 q 337 478 305 496 q 273 515 236 515 q 198 515 174 495 q 149 476 149 446 q 149 421 166 405 q 183 388 221 375 l 239 369 q 336 337 362 323 q 420 291 443 256 q 466 221 466 168 q 466 85 409 34 q 353 -16 259 -16 q 189 -16 132 12 q 75 40 32 94 l 108 161 q 138 120 177 98 q 216 76 261 76 q 308 76 338 99 q 367 121 367 157 q 367 186 346 206 q 326 227 280 242 q 261 249 228 259 q 155 283 136 295 q 90 323 71 355 q 51 387 51 431 q 51 506 104 555 q 157 604 239 604 q 303 604 355 578 q 407 553 443 503 z"},">":{"x_min":0,"x_max":833,"ha":833,"o":"m 704 330 l 704 267 l 129 31 l 129 106 l 603 298 l 129 491 l 129 566 z"},"l":{"x_min":0,"x_max":271,"ha":271,"o":"m 81 0 l 81 787 l 190 787 l 190 0 z"},"8":{"x_min":0,"x_max":542,"ha":542,"o":"m 149 214 q 149 152 182 116 q 215 79 270 79 q 325 79 359 116 q 392 153 392 214 q 392 275 359 312 q 325 348 270 348 q 214 348 182 312 q 149 275 149 214 z m 162 563 q 162 506 191 473 q 221 439 270 439 q 319 439 349 473 q 379 507 379 563 q 379 619 349 653 q 319 687 270 687 q 221 687 191 653 q 162 620 162 563 z m 150 400 q 103 431 80 472 q 57 513 57 568 q 57 659 118 718 q 179 778 271 778 q 363 778 423 718 q 484 658 484 568 q 484 514 461 472 q 438 431 391 400 q 445 370 474 320 q 503 271 503 210 q 503 164 485 122 q 468 80 434 47 q 402 16 361 0 q 320 -16 271 -16 q 222 -16 181 0 q 140 16 108 47 q 74 80 56 122 q 38 164 38 210 q 38 271 67 320 q 96 370 150 400 z"},"\\":{"x_min":0,"x_max":312,"ha":312,"o":"m -67 792 l 12 792 l 349 -93 l 271 -93 z"},"e":{"x_min":0,"x_max":556,"ha":556,"o":"m 144 349 l 419 349 q 412 430 376 473 q 341 516 282 516 q 223 516 187 473 q 151 429 144 349 z m 496 107 q 456 44 405 14 q 353 -16 285 -16 q 168 -16 102 66 q 35 149 35 294 q 35 437 101 521 q 167 604 279 604 q 393 604 457 520 q 522 436 522 286 l 522 276 l 145 276 l 145 263 q 145 181 185 128 q 225 76 286 76 q 327 76 358 97 q 390 117 419 162 z"},"b":{"x_min":0,"x_max":612,"ha":612,"o":"m 84 0 l 84 787 l 192 787 l 192 604 q 192 562 189 531 q 186 500 179 476 q 204 533 246 563 q 288 593 342 593 q 437 593 496 509 q 555 426 555 288 q 555 150 497 67 q 438 -16 342 -16 q 285 -16 240 22 q 196 60 170 130 q 176 93 179 61 q 183 29 184 0 z m 317 79 q 374 79 409 135 q 444 190 444 283 q 444 376 409 431 q 375 486 316 486 q 259 486 224 431 q 189 375 189 283 q 189 189 224 134 q 259 79 317 79 z"},"%":{"x_min":0,"x_max":1014,"ha":1014,"o":"m 569 185 q 569 269 628 328 q 687 386 771 386 q 855 386 914 328 q 972 269 972 185 q 972 101 914 42 q 855 -16 771 -16 q 730 -16 694 -1 q 657 14 629 42 q 600 71 584 108 q 569 145 569 185 z m 642 185 q 642 132 680 94 q 718 56 771 56 q 824 56 862 94 q 899 131 899 185 q 899 239 862 276 q 825 313 771 313 q 717 313 680 276 q 642 238 642 185 z m 41 576 q 41 660 100 719 q 159 778 243 778 q 327 778 385 719 q 444 660 444 576 q 444 492 385 434 q 327 375 243 375 q 203 375 166 390 q 129 405 101 434 q 72 463 56 500 q 41 536 41 576 z m 114 577 q 114 524 152 486 q 190 448 243 448 q 296 448 334 486 q 372 523 372 577 q 372 630 334 668 q 297 705 243 705 q 189 705 152 667 q 114 630 114 577 z m 241 -16 l 700 778 l 770 778 l 313 -16 z"},"m":{"x_min":0,"x_max":902,"ha":902,"o":"m 84 0 l 84 588 l 183 588 q 182 548 178 510 q 175 472 171 435 q 195 514 241 555 q 287 596 349 596 q 404 596 442 565 q 480 535 497 477 q 531 539 571 567 q 611 596 663 596 q 737 596 779 542 q 820 488 820 391 l 820 0 l 711 0 l 711 366 q 711 435 691 466 q 670 497 626 497 q 572 497 539 440 q 506 383 506 287 l 506 0 l 398 0 l 398 366 q 398 434 377 466 q 357 497 312 497 q 258 497 226 440 q 193 383 193 287 l 193 0 z"},"#":{"x_min":0,"x_max":769,"ha":769,"o":"m 473 419 l 346 419 l 301 290 l 428 290 z m 451 712 l 372 490 l 497 490 l 577 712 l 657 712 l 579 490 l 726 490 l 701 419 l 553 419 l 508 291 l 665 291 l 640 219 l 483 219 l 404 -2 l 323 -2 l 402 219 l 276 219 l 197 -2 l 116 -2 l 194 219 l 43 219 l 69 291 l 220 291 l 265 419 l 104 419 l 129 490 l 291 490 l 370 712 z"},",":{"x_min":0,"x_max":271,"ha":271,"o":"m -11 -74 l 98 241 l 225 241 l 82 -74 z"},"n":{"x_min":0,"x_max":604,"ha":604,"o":"m 414 0 l 414 366 q 414 434 393 466 q 372 498 326 498 q 266 498 229 441 q 193 384 193 287 l 193 0 l 84 0 l 84 588 l 183 588 q 182 548 178 510 q 175 472 171 435 q 198 514 246 555 q 293 596 359 596 q 438 596 480 543 q 523 490 523 391 l 523 0 z"},"h":{"x_min":0,"x_max":604,"ha":604,"o":"m 414 0 l 414 366 q 414 434 393 466 q 372 498 326 498 q 266 498 229 441 q 193 384 193 287 l 193 0 l 84 0 l 84 787 l 193 787 l 193 589 q 193 565 190 530 q 187 495 181 449 q 206 521 251 558 q 296 596 359 596 q 438 596 480 543 q 523 490 523 391 l 523 0 z"},"z":{"x_min":0,"x_max":472,"ha":472,"o":"m 8 0 l 277 495 l 42 495 l 42 588 l 449 588 l 180 93 l 437 93 l 437 0 z"},"B":{"x_min":0,"x_max":748,"ha":748,"o":"m 231 100 l 326 100 q 459 100 509 129 q 558 159 558 231 q 558 306 512 334 q 467 363 326 363 l 231 363 z m 231 456 l 311 456 q 423 456 464 481 q 506 505 506 566 q 506 628 469 652 q 433 676 311 676 l 231 676 z m 508 426 q 592 409 632 360 q 673 311 673 227 q 673 109 597 55 q 521 0 355 0 l 120 0 l 120 775 l 324 775 q 419 775 461 768 q 503 761 531 745 q 574 718 596 676 q 618 634 618 577 q 618 518 591 480 q 563 442 508 426 z"},"K":{"x_min":0,"x_max":743,"ha":743,"o":"m 120 0 l 120 775 l 232 775 l 232 407 l 561 775 l 699 775 l 355 406 l 759 0 l 608 0 l 232 386 l 232 0 z"},"R":{"x_min":0,"x_max":755,"ha":755,"o":"m 231 422 l 321 422 q 453 422 503 451 q 553 480 553 550 q 553 622 507 650 q 461 678 321 678 l 231 678 z m 384 775 q 525 775 596 718 q 668 661 668 548 q 668 449 612 393 q 557 338 445 326 l 742 0 l 598 0 l 305 326 l 231 326 l 231 0 l 120 0 l 120 775 z"},"T":{"x_min":0,"x_max":692,"ha":692,"o":"m 402 673 l 402 0 l 291 0 l 291 673 l 45 673 l 45 775 l 647 775 l 647 673 z"},"P":{"x_min":0,"x_max":745,"ha":745,"o":"m 231 317 l 231 0 l 120 0 l 120 775 l 395 775 q 536 775 610 718 q 684 661 684 552 q 684 437 607 377 q 530 317 381 317 z m 231 414 l 330 414 q 467 414 518 444 q 569 475 569 549 q 569 622 521 650 q 474 678 330 678 l 231 678 z"},"|":{"x_min":0,"x_max":500,"ha":500,"o":"m 287 764 l 287 -236 l 214 -236 l 214 764 z"},"t":{"x_min":0,"x_max":321,"ha":321,"o":"m 215 775 l 215 588 l 323 588 l 323 505 l 215 505 l 215 0 l 106 0 l 106 505 l -3 505 l -3 588 l 106 588 l 106 775 z"},"M":{"x_min":0,"x_max":1019,"ha":1019,"o":"m 456 0 l 323 468 q 321 476 316 491 q 286 597 274 666 q 268 613 261 565 q 253 516 245 470 l 159 0 l 57 0 l 209 775 l 327 775 l 481 229 q 492 187 499 155 q 506 124 509 97 q 512 124 519 155 q 525 187 537 229 l 690 775 l 808 775 l 961 0 l 859 0 l 772 470 q 766 504 759 552 q 752 599 744 666 q 731 594 701 487 q 697 474 695 468 l 562 0 z"},"g":{"x_min":0,"x_max":602,"ha":602,"o":"m 288 108 q 346 108 381 161 q 416 213 416 303 q 416 393 382 445 q 347 498 290 498 q 231 498 197 446 q 162 393 162 303 q 162 213 196 161 q 230 108 288 108 z m 167 -44 q 186 -78 211 -92 q 236 -106 277 -106 q 346 -106 379 -63 q 411 -20 411 72 q 411 85 409 114 q 409 117 409 119 q 385 69 347 43 q 309 17 259 17 q 167 17 108 97 q 50 176 50 305 q 50 438 109 517 q 167 596 264 596 q 319 596 362 562 q 405 528 430 463 q 423 497 419 528 q 416 559 416 588 l 522 588 l 522 90 q 522 18 509 -27 q 496 -73 467 -106 q 435 -143 386 -163 q 336 -183 278 -183 q 195 -183 142 -156 q 89 -128 67 -73 z"},"j":{"x_min":0,"x_max":271,"ha":271,"o":"m 219 716 q 219 684 196 664 q 172 644 135 644 q 98 644 75 664 q 52 684 52 716 q 52 748 74 768 q 97 787 135 787 q 173 787 196 768 q 219 748 219 716 z m 81 -183 l 81 569 l 190 569 l 190 -183 z"},"i":{"x_min":0,"x_max":271,"ha":271,"o":"m 219 716 q 219 684 196 664 q 172 644 135 644 q 98 644 75 664 q 52 684 52 716 q 52 748 74 768 q 97 787 135 787 q 173 787 196 768 q 219 748 219 716 z m 81 0 l 81 569 l 190 569 l 190 0 z"},"y":{"x_min":0,"x_max":514,"ha":514,"o":"m 509 588 l 218 -183 l 99 -183 l 197 63 l 12 588 l 135 588 l 259 197 l 394 588 z"},"@":{"x_min":0,"x_max":1000,"ha":1000,"o":"m 627 417 l 655 473 l 719 473 l 648 192 q 646 184 645 177 q 644 169 644 163 q 644 141 656 129 q 669 117 693 117 q 716 117 743 130 q 770 143 795 167 q 834 204 856 258 q 878 312 878 372 q 878 499 785 577 q 692 656 541 656 q 476 656 421 642 q 366 628 318 600 q 225 544 173 454 q 122 363 122 254 q 122 167 152 104 q 182 40 246 -9 q 295 -46 362 -67 q 428 -87 502 -87 q 584 -87 662 -63 q 740 -39 805 6 l 832 -34 q 760 -88 678 -116 q 597 -143 508 -143 q 415 -143 338 -120 q 261 -97 201 -52 q 126 6 89 82 q 52 158 52 255 q 52 335 77 408 q 103 480 151 539 q 222 626 323 671 q 423 716 545 716 q 625 716 696 694 q 768 672 820 632 q 883 583 916 519 q 949 455 949 381 q 949 295 918 227 q 887 159 828 112 q 795 85 755 71 q 715 57 674 57 q 625 57 601 76 q 576 96 576 134 l 576 143 q 549 100 513 79 q 477 58 429 58 q 354 58 315 100 q 276 141 276 220 q 276 335 343 413 q 411 490 509 490 q 550 490 580 472 q 609 454 627 417 z m 581 232 l 610 347 q 602 390 576 414 q 551 437 513 437 q 446 437 400 374 q 354 310 354 218 q 354 167 378 139 q 401 111 445 111 q 492 111 530 145 q 568 178 581 232 z"},".":{"x_min":0,"x_max":271,"ha":271,"o":"m 135 -8 q 101 -8 77 16 q 54 39 54 73 q 54 107 78 130 q 101 154 135 154 q 169 154 192 130 q 216 107 216 73 q 216 39 192 16 q 169 -8 135 -8 z"},"p":{"x_min":0,"x_max":612,"ha":612,"o":"m 316 95 q 375 95 409 150 q 444 206 444 299 q 444 392 409 447 q 375 502 317 502 q 259 502 224 447 q 189 393 189 299 q 189 206 224 151 q 259 95 316 95 z m 170 452 q 196 522 240 560 q 285 598 342 598 q 438 598 497 515 q 555 432 555 294 q 555 156 496 72 q 437 -12 342 -12 q 288 -12 246 18 q 204 49 179 106 q 186 82 189 51 q 192 20 192 -22 l 192 -183 l 84 -183 l 84 588 l 184 588 q 183 555 179 521 q 176 487 170 452 z"},"X":{"x_min":0,"x_max":743,"ha":743,"o":"m 7 0 l 306 411 l 41 775 l 178 775 l 373 505 l 570 775 l 694 775 l 434 416 l 735 0 l 594 0 l 366 322 l 133 0 z"},"*":{"x_min":0,"x_max":449,"ha":449,"o":"m 224 548 l 141 397 l 68 451 l 186 576 l 19 609 l 47 694 l 201 620 l 183 792 l 266 792 l 247 620 l 401 694 l 429 609 l 262 576 l 380 451 l 307 397 z"},"Y":{"x_min":0,"x_max":722,"ha":722,"o":"m 416 319 l 416 0 l 305 0 l 305 319 l 0 775 l 134 775 l 363 419 l 597 775 l 721 775 z"},"c":{"x_min":0,"x_max":522,"ha":522,"o":"m 487 23 q 460 3 419 -7 q 378 -17 328 -17 q 192 -17 114 66 q 35 150 35 294 q 35 436 113 521 q 190 605 320 605 q 368 605 410 594 q 453 583 487 561 l 487 446 q 455 477 415 493 q 375 509 329 509 q 245 509 196 452 q 148 395 148 295 q 148 193 198 136 q 249 78 337 78 q 379 78 415 94 q 451 110 487 144 z"},"!":{"x_min":0,"x_max":294,"ha":294,"o":"m 147 -8 q 113 -8 89 16 q 66 39 66 73 q 66 107 90 130 q 113 154 147 154 q 181 154 204 130 q 228 107 228 73 q 228 39 205 16 q 181 -8 147 -8 z m 92 257 l 92 775 l 201 775 l 201 257 z"},"/":{"x_min":0,"x_max":312,"ha":312,"o":"m 350 792 l 12 -93 l -66 -93 l 271 792 z"},"[":{"x_min":0,"x_max":424,"ha":424,"o":"m 133 -81 l 133 775 l 397 775 l 397 725 l 230 725 l 230 -30 l 397 -30 l 397 -81 z"},"6":{"x_min":0,"x_max":542,"ha":542,"o":"m 141 230 q 141 159 177 117 q 212 75 271 75 q 330 75 365 117 q 401 159 401 230 q 401 300 365 343 q 330 385 271 385 q 212 385 177 343 q 141 300 141 230 z m 217 454 q 236 463 257 468 q 278 472 303 472 q 337 472 370 459 q 403 446 429 422 q 468 387 488 337 q 509 288 509 229 q 509 121 444 52 q 379 -17 278 -17 q 172 -17 104 56 q 36 129 36 244 q 36 301 56 359 q 75 417 114 475 l 310 762 l 442 762 z"},"r":{"x_min":0,"x_max":366,"ha":366,"o":"m 83 0 l 83 588 l 188 588 q 188 555 185 518 q 183 480 178 435 q 208 518 246 557 q 284 596 334 596 q 346 596 360 593 q 374 590 393 583 l 368 461 q 354 468 341 472 q 329 475 317 475 q 260 475 226 418 q 192 362 192 265 l 192 0 z"},"2":{"x_min":0,"x_max":542,"ha":542,"o":"m 5 0 l 61 66 q 374 444 374 561 q 374 618 345 650 q 316 682 265 682 q 210 682 181 640 q 152 599 152 520 l 152 509 l 43 509 l 43 528 q 43 645 102 711 q 160 778 263 778 q 367 778 427 718 q 487 658 487 554 q 487 469 432 375 q 378 281 211 100 l 490 100 l 490 0 z"},"{":{"x_min":0,"x_max":500,"ha":500,"o":"m 423 648 l 403 648 q 344 648 324 626 q 304 604 304 536 l 304 418 q 304 340 282 307 q 261 273 206 259 q 261 245 283 212 q 304 179 304 100 l 304 -18 q 304 -87 324 -108 q 345 -130 404 -130 l 423 -130 l 423 -202 l 402 -202 q 349 -202 319 -197 q 290 -191 269 -178 q 242 -162 231 -131 q 220 -100 220 -28 l 220 92 q 220 165 194 194 q 167 224 103 224 q 100 224 93 224 q 85 223 82 223 l 82 296 q 86 296 93 295 q 101 295 104 295 q 167 295 194 324 q 220 354 220 426 l 220 546 q 220 618 231 649 q 242 679 269 696 q 291 709 322 715 q 353 721 405 721 l 423 721 z"},"9":{"x_min":0,"x_max":542,"ha":542,"o":"m 399 532 q 399 603 364 645 q 328 687 269 687 q 209 687 174 645 q 139 603 139 532 q 139 462 175 419 q 210 377 269 377 q 328 377 363 419 q 399 462 399 532 z m 323 308 q 304 299 283 294 q 263 290 238 290 q 150 290 90 359 q 31 428 31 533 q 31 641 96 709 q 161 778 263 778 q 369 778 437 705 q 504 633 504 518 q 504 460 484 402 q 465 344 426 287 l 231 0 l 98 0 z"}," ":{"x_min":0,"x_max":271,"ha":271,"o":""},"I":{"x_min":0,"x_max":352,"ha":352,"o":"m 231 0 l 120 0 l 120 775 l 231 775 z"},"H":{"x_min":0,"x_max":833,"ha":833,"o":"m 120 0 l 120 775 l 231 775 l 231 454 l 602 454 l 602 775 l 713 775 l 713 0 l 602 0 l 602 352 l 231 352 l 231 0 z"},"4":{"x_min":0,"x_max":542,"ha":542,"o":"m 353 229 l 359 569 l 142 229 z m 347 0 l 347 143 l 12 143 l 12 180 l 417 778 l 449 778 l 449 229 l 513 229 l 513 143 l 449 143 l 449 0 z"},"~":{"x_min":0,"x_max":833,"ha":833,"o":"m 747 300 q 696 265 650 248 q 604 231 557 231 q 512 231 432 259 q 421 263 416 265 l 408 268 q 322 297 275 297 q 234 297 189 279 q 145 261 87 220 l 87 296 q 139 331 186 349 q 232 366 276 366 q 306 366 338 360 q 370 353 418 336 q 426 333 441 328 q 519 300 558 300 q 601 300 646 318 q 690 336 747 376 z"},"D":{"x_min":0,"x_max":831,"ha":831,"o":"m 231 102 l 323 102 q 391 102 443 110 q 495 118 519 131 q 584 167 616 231 q 648 295 648 389 q 648 478 616 543 q 583 608 522 644 q 497 659 448 666 q 399 673 321 673 l 231 673 z m 120 0 l 120 775 l 342 775 q 429 775 489 765 q 548 755 585 734 q 672 684 718 596 q 763 508 763 390 q 763 272 721 187 q 678 101 594 49 q 552 23 489 11 q 425 0 318 0 z"},"^":{"x_min":0,"x_max":1000,"ha":1000,"o":"m 545 712 l 794 440 l 706 440 l 500 645 l 293 440 l 205 440 l 454 712 z"},"0":{"x_min":0,"x_max":542,"ha":542,"o":"m 152 381 q 152 241 184 162 q 215 83 271 83 q 327 83 358 162 q 390 241 390 381 q 390 522 359 600 q 327 678 271 678 q 216 678 184 599 q 152 520 152 381 z m 35 381 q 35 566 98 672 q 162 778 271 778 q 382 778 444 673 q 507 568 507 381 q 507 194 444 89 q 382 -16 272 -16 q 162 -16 98 89 q 35 195 35 381 z"},"F":{"x_min":0,"x_max":708,"ha":708,"o":"m 120 0 l 120 775 l 662 775 l 662 674 l 231 674 l 231 444 l 634 444 l 634 342 l 231 342 l 231 0 z"},"`":{"x_min":0,"x_max":500,"ha":500,"o":"m 320 659 l 261 659 l 122 830 l 220 830 z"},"k":{"x_min":0,"x_max":556,"ha":556,"o":"m 83 0 l 83 787 l 192 787 l 192 352 l 400 588 l 516 588 l 313 364 l 560 0 l 434 0 l 240 294 l 192 242 l 192 0 z"},"u":{"x_min":0,"x_max":604,"ha":604,"o":"m 522 230 q 522 113 464 49 q 406 -16 302 -16 q 198 -16 140 49 q 82 113 82 230 l 82 588 l 191 588 l 191 235 q 191 158 219 119 q 247 81 302 81 q 357 81 385 119 q 413 158 413 235 l 413 588 l 522 588 z"},"]":{"x_min":0,"x_max":424,"ha":424,"o":"m 290 775 l 290 -81 l 26 -81 l 26 -31 l 193 -31 l 193 724 l 26 724 l 26 775 z"},"U":{"x_min":0,"x_max":792,"ha":792,"o":"m 118 775 l 229 775 l 229 342 q 229 214 271 150 q 312 86 396 86 q 480 86 521 149 q 563 213 563 342 l 563 775 l 674 775 l 674 341 q 674 166 603 75 q 532 -16 396 -16 q 259 -16 189 75 q 118 166 118 341 z"},"o":{"x_min":0,"x_max":557,"ha":557,"o":"m 278 81 q 338 81 374 139 q 409 196 409 295 q 409 393 374 451 q 338 509 279 509 q 219 509 184 451 q 149 394 149 295 q 149 197 184 139 q 219 81 278 81 z m 278 -16 q 167 -16 101 68 q 35 151 35 294 q 35 437 101 520 q 167 604 278 604 q 390 604 456 520 q 522 436 522 294 q 522 152 456 68 q 390 -16 278 -16 z"},"N":{"x_min":0,"x_max":804,"ha":804,"o":"m 572 0 l 269 517 q 259 534 247 560 q 235 587 219 630 q 224 602 226 568 q 228 534 228 465 l 228 0 l 120 0 l 120 775 l 234 775 l 525 280 q 541 253 556 220 q 572 187 588 147 q 583 190 580 232 q 577 273 577 313 l 577 775 l 684 775 l 684 0 z"},"+":{"x_min":0,"x_max":833,"ha":833,"o":"m 451 596 l 451 332 l 709 332 l 709 264 l 451 264 l 451 0 l 382 0 l 382 264 l 124 264 l 124 332 l 382 332 l 382 596 z"},"G":{"x_min":0,"x_max":782,"ha":782,"o":"m 734 403 l 734 400 q 736 372 736 357 q 736 306 727 262 q 719 219 702 184 q 653 84 577 34 q 501 -16 400 -16 q 324 -16 260 13 q 195 42 148 96 q 99 153 74 225 q 50 298 50 388 q 50 477 74 551 q 99 624 148 681 q 194 735 259 763 q 323 792 399 792 q 491 792 559 755 q 627 718 679 639 l 594 571 q 559 631 512 661 q 464 690 401 690 q 294 690 230 608 q 166 526 166 388 q 166 252 231 169 q 296 86 401 86 q 493 86 552 147 q 612 208 617 306 l 421 306 l 421 403 z"},"q":{"x_min":0,"x_max":612,"ha":612,"o":"m 297 95 q 354 95 389 151 q 424 206 424 299 q 424 393 389 447 q 354 502 296 502 q 239 502 204 447 q 169 392 169 299 q 169 206 204 150 q 239 95 297 95 z m 434 106 q 409 49 367 18 q 325 -12 271 -12 q 176 -12 117 72 q 58 156 58 294 q 58 432 116 515 q 175 598 271 598 q 329 598 373 560 q 417 522 443 452 q 438 487 434 521 q 430 555 429 588 l 529 588 l 529 -183 l 421 -183 l 421 -22 q 421 20 424 51 q 427 82 434 106 z"},"d":{"x_min":0,"x_max":612,"ha":612,"o":"m 296 79 q 354 79 389 134 q 424 189 424 283 q 424 375 389 431 q 354 486 297 486 q 239 486 204 431 q 169 376 169 283 q 169 190 204 135 q 239 79 296 79 z m 429 0 q 430 29 434 61 q 438 93 443 130 q 417 60 373 22 q 329 -16 271 -16 q 175 -16 116 67 q 58 150 58 288 q 58 426 117 509 q 176 593 271 593 q 325 593 367 563 q 409 533 434 476 q 427 500 424 531 q 421 562 421 604 l 421 787 l 529 787 l 529 0 z"},"1":{"x_min":0,"x_max":542,"ha":542,"o":"m 219 0 l 219 669 l 78 669 l 78 762 l 334 762 l 334 0 z"},"5":{"x_min":0,"x_max":542,"ha":542,"o":"m 1 101 l 74 175 q 103 126 141 103 q 179 80 230 80 q 297 80 338 125 q 379 169 379 243 q 379 318 339 361 q 299 404 231 404 q 195 404 161 392 q 127 380 95 356 l 79 367 l 160 762 l 489 762 l 489 668 l 237 668 l 194 482 q 218 488 239 492 q 260 495 278 495 q 375 495 433 429 q 490 364 490 253 q 490 130 419 57 q 348 -16 229 -16 q 158 -16 101 13 q 44 42 1 101 z"}}}
